<svg width="24" height="24" viewBox="0 0 24 24" fill="none" xmlns="http://www.w3.org/2000/svg">
<g clip-path="url(#clip0_164_1216)">
<path d="M2.58873 23.1428L21.4459 23.1428C22.3926 23.1428 23.1602 22.3753 23.1602 21.4285L23.1602 2.57139C23.1602 1.62462 22.3926 0.857107 21.4459 0.857107L2.58873 0.857107C1.64195 0.857107 0.874441 1.62462 0.874441 2.57139L0.874441 21.4285C0.874441 22.3753 1.64195 23.1428 2.58873 23.1428Z" stroke="white" stroke-width="1.71429" stroke-linecap="round" stroke-linejoin="round"/>
<path d="M15.8572 11.1428C17.514 11.1428 18.8572 9.79968 18.8572 8.14282C18.8572 6.48597 17.514 5.14282 15.8572 5.14282C14.2003 5.14282 12.8572 6.48597 12.8572 8.14282C12.8572 9.79968 14.2003 11.1428 15.8572 11.1428Z" stroke="white" stroke-width="1.71429" stroke-linecap="round" stroke-linejoin="round"/>
<path d="M16.1143 23.1428C15.5623 20.2028 13.9837 17.5546 11.6601 15.6706C9.33658 13.7866 6.41922 12.7895 3.42861 12.8571C2.56577 12.8548 1.70469 12.9352 0.857178 13.0971" stroke="white" stroke-width="1.71429" stroke-linecap="round" stroke-linejoin="round"/>
<path d="M23.1429 16.9885C21.7622 16.5223 20.3145 16.2849 18.8572 16.2857C17.0125 16.2817 15.1865 16.655 13.4915 17.3828" stroke="white" stroke-width="1.71429" stroke-linecap="round" stroke-linejoin="round"/>
</g>
<defs>
<clipPath id="clip0_164_1216">
<rect width="24" height="24" fill="white"/>
</clipPath>
</defs>
</svg>
